<svg width="19" height="18" viewBox="0 0 19 18" fill="none" xmlns="http://www.w3.org/2000/svg">
<mask id="mask0_724_1792" style="mask-type:alpha" maskUnits="userSpaceOnUse" x="0" y="0" width="19" height="18">
<rect x="0.655273" width="18" height="18" fill="#D9D9D9"/>
</mask>
<g mask="url(#mask0_724_1792)">
<path d="M8.90527 12.75H10.4053V9.75H13.4053V8.25H10.4053V5.25H8.90527V8.25H5.90527V9.75H8.90527V12.75ZM9.65527 16.5C8.61777 16.5 7.64277 16.3031 6.73027 15.9094C5.81777 15.5156 5.02402 14.9813 4.34902 14.3063C3.67402 13.6313 3.13965 12.8375 2.7459 11.925C2.35215 11.0125 2.15527 10.0375 2.15527 9C2.15527 7.9625 2.35215 6.9875 2.7459 6.075C3.13965 5.1625 3.67402 4.36875 4.34902 3.69375C5.02402 3.01875 5.81777 2.48438 6.73027 2.09063C7.64277 1.69687 8.61777 1.5 9.65527 1.5C10.6928 1.5 11.6678 1.69687 12.5803 2.09063C13.4928 2.48438 14.2865 3.01875 14.9615 3.69375C15.6365 4.36875 16.1709 5.1625 16.5646 6.075C16.9584 6.9875 17.1553 7.9625 17.1553 9C17.1553 10.0375 16.9584 11.0125 16.5646 11.925C16.1709 12.8375 15.6365 13.6313 14.9615 14.3063C14.2865 14.9813 13.4928 15.5156 12.5803 15.9094C11.6678 16.3031 10.6928 16.5 9.65527 16.5ZM9.65527 15C11.3303 15 12.749 14.4187 13.9115 13.2563C15.074 12.0938 15.6553 10.675 15.6553 9C15.6553 7.325 15.074 5.90625 13.9115 4.74375C12.749 3.58125 11.3303 3 9.65527 3C7.98027 3 6.56152 3.58125 5.39902 4.74375C4.23652 5.90625 3.65527 7.325 3.65527 9C3.65527 10.675 4.23652 12.0938 5.39902 13.2563C6.56152 14.4187 7.98027 15 9.65527 15Z" fill="#1C1B1F"/>
</g>
</svg>
