<svg width="16" height="16" viewBox="0 0 16 16" fill="none" xmlns="http://www.w3.org/2000/svg">
<path d="M14.5408 9.30859C14.5058 9.49443 14.4641 9.67807 14.4138 9.8584C14.2477 10.4543 14.0134 11.0144 13.7117 11.54C13.4114 12.0631 13.0488 12.5319 12.6238 12.9473C12.1939 13.3674 11.7172 13.7344 11.1931 14.0479C10.6758 14.3572 10.1216 14.5919 9.53003 14.752C9.30744 14.8122 9.08019 14.861 8.84839 14.8994C9.0764 14.8601 9.30146 14.8098 9.52319 14.7471C10.1148 14.5796 10.6703 14.3444 11.1873 14.041C11.7026 13.7385 12.1761 13.3737 12.6062 12.9492C13.0384 12.5226 13.4051 12.0499 13.7039 11.5312C14.0009 11.0156 14.2349 10.4592 14.407 9.86523C14.4602 9.68147 14.5043 9.4958 14.5408 9.30859ZM0.768311 9.23145C0.806542 9.44447 0.855103 9.65478 0.913818 9.8623C1.08124 10.4539 1.31648 11.0094 1.61987 11.5264C1.92238 12.0417 2.28717 12.5152 2.71167 12.9453C3.13834 13.3775 3.61099 13.7442 4.12964 14.043C4.64527 14.34 5.20169 14.574 5.79565 14.7461C5.96945 14.7964 6.14514 14.8377 6.32202 14.873C6.14664 14.8392 5.97295 14.8004 5.80249 14.7529C5.20663 14.5868 4.64652 14.3525 4.12085 14.0508C3.59778 13.7505 3.12898 13.3879 2.71362 12.9629C2.29353 12.533 1.92648 12.0563 1.61304 11.5322C1.30367 11.0149 1.06896 10.4608 0.908936 9.86914C0.852539 9.6606 0.805577 9.44806 0.768311 9.23145ZM7.3064 10.6465L7.30347 10.6494L6.1521 9.50977L7.3064 10.6465ZM8.99878 1.12598C9.17455 1.15989 9.34846 1.19946 9.51929 1.24707C10.1151 1.41316 10.6753 1.64745 11.2009 1.94922C11.724 2.2495 12.1928 2.6121 12.6082 3.03711C13.0283 3.467 13.3953 3.94373 13.7087 4.46777C14.0181 4.98506 14.2528 5.53924 14.4128 6.13086C14.4714 6.34752 14.5194 6.56857 14.5574 6.79395C14.5185 6.57227 14.469 6.35342 14.408 6.1377C14.2405 5.54613 14.0053 4.99059 13.7019 4.47363C13.3994 3.95825 13.0346 3.48477 12.6101 3.05469C12.1834 2.62247 11.7108 2.25584 11.1921 1.95703C10.6765 1.65998 10.1201 1.42599 9.52612 1.25391C9.35195 1.20346 9.17604 1.16138 8.99878 1.12598ZM6.41479 1.11035C6.20679 1.14816 6.00133 1.19556 5.79858 1.25293C5.20702 1.42035 4.65148 1.65559 4.13452 1.95898C3.61914 2.26149 3.14566 2.62628 2.71558 3.05078C2.28336 3.47745 1.91672 3.9501 1.61792 4.46875C1.32087 4.98438 1.08688 5.5408 0.914795 6.13477C0.871191 6.28532 0.832904 6.43698 0.800537 6.58984C0.831423 6.43876 0.866877 6.28901 0.907959 6.1416C1.07405 5.54575 1.30834 4.98563 1.61011 4.45996C1.91039 3.93689 2.27299 3.46809 2.698 3.05273C3.12789 2.63264 3.60462 2.2656 4.12866 1.95215C4.64595 1.64278 5.20013 1.40808 5.79175 1.24805C5.99556 1.19293 6.20327 1.1472 6.41479 1.11035ZM7.3064 5.35254L6.25952 6.38477L7.30347 5.34961L7.3064 5.35254Z" fill="black" stroke="black"/>
</svg>
