<svg width="25" height="24" viewBox="0 0 25 24" fill="none" xmlns="http://www.w3.org/2000/svg">
<path d="M3.31616 6H5.31616H21.3162" stroke="black" stroke-width="2" stroke-linecap="round" stroke-linejoin="round"/>
<path d="M19.3162 6V20C19.3162 20.5304 19.1054 21.0391 18.7304 21.4142C18.3553 21.7893 17.8466 22 17.3162 22H7.31616C6.78573 22 6.27702 21.7893 5.90195 21.4142C5.52688 21.0391 5.31616 20.5304 5.31616 20V6M8.31616 6V4C8.31616 3.46957 8.52688 2.96086 8.90195 2.58579C9.27702 2.21071 9.78573 2 10.3162 2H14.3162C14.8466 2 15.3553 2.21071 15.7304 2.58579C16.1054 2.96086 16.3162 3.46957 16.3162 4V6" stroke="black" stroke-width="2" stroke-linecap="round" stroke-linejoin="round"/>
<path d="M10.3162 11V17" stroke="black" stroke-width="2" stroke-linecap="round" stroke-linejoin="round"/>
<path d="M14.3162 11V17" stroke="black" stroke-width="2" stroke-linecap="round" stroke-linejoin="round"/>
</svg>
